<?xml version='1.0' encoding='utf-8'?>
<svg xmlns="http://www.w3.org/2000/svg" version="1.1" width="600px" height="976px" viewBox="0 0 600 976"> <g id="layer1"> <g> <g style="fill:rgb(0,0,0); fill-opacity:1.0; stroke-linejoin: miter"> <path d="M278.3419,244.29773C278.66257,244.3894,279.99115,244.80176,281.2968,245.19116C286.33624,246.72583,290.73428,249.52051,293.04785,252.65869C294.9949,255.36157,295.70502,256.94214,297.58334,263.05823C297.99567,264.38678,298.40796,265.69244,298.5225,265.99023C298.63702,266.28796,298.72867,266.81482,298.72867,267.20422C298.72867,268.02893,299.622,269.01392,300.37793,269.01392C301.08804,269.03674,301.86685,269.724,302.27917,270.70898C302.7373,271.80847,302.7144,274.85504,302.25626,278.26807C301.88977,280.78784,301.88977,281.0398,302.23337,281.7041C302.4395,282.0935,302.87473,283.12427,303.19543,284.01764C303.5161,284.88806,303.97424,286.03345,304.22623,286.53735C304.4553,287.04126,305.09668,288.5302,305.6235,289.85876C308.12033,296.06647,312.03732,300.5103,317.62653,303.48816C320.0317,304.77094,324.2236,307.47388,326.6746,309.35223C328.1864,310.49756,329.67535,311.94067,332.3325,314.8269C333.3862,315.97217,334.1879,316.52197,335.4936,316.9801C339.50223,318.4461,342.2739,320.3015,343.9232,322.56927C344.7936,323.76038,346.05347,326.73828,347.51947,331.09045C349.07715,335.64893,349.26038,336.03833,351.3907,339.08484C353.17737,341.6046,355.7658,346.1172,355.7658,346.68982C355.7658,346.80432,356.0407,347.46863,356.3614,348.20166C356.68207,348.9347,357.07147,349.78223,357.18604,350.1029C357.3235,350.42358,357.5067,350.85876,357.62125,351.06494C358.69788,353.19525,359.31635,359.33423,359.5454,370.26062C359.70575,377.65942,359.5454,376.67444,361.3321,380.54565C361.58408,381.09534,361.88184,381.96582,361.9964,382.49268C362.63776,385.35596,363.1188,402.3526,362.61487,404.04767C362.2942,405.14722,361.56116,407.1859,361.08014,408.2854C360.69073,409.15582,358.8811,411.35486,357.25476,412.8896C356.0407,414.05786,355.7658,414.58466,354.39142,418.6162C353.42938,421.50244,353.2461,421.82312,352.1924,422.85388C351.20743,423.81598,351.00128,424.20544,350.63477,425.57983C350.26825,427.06873,350.0163,427.80176,349.58105,428.67218C349.3062,429.24487,347.93182,431.74164,347.74854,431.99365C347.65692,432.10815,347.08426,433.13892,346.4887,434.2843C345.4579,436.2542,344.88525,437.14758,342.11356,441.38525C340.23523,444.2486,340.25815,444.2257,340.99115,445.78333C341.33475,446.51636,341.9074,447.79907,342.251,448.62372C342.5946,449.44836,343.02982,450.47913,343.236,450.91437C345.27466,455.51855,346.62613,462.64246,346.168,466.193C346.03058,467.1551,345.87024,468.41495,345.8015,468.9876C345.4808,471.66766,345.25174,473.04205,345.02267,473.68344C344.49585,475.19525,343.85446,477.89822,343.6483,479.5246C343.25888,482.365,343.00693,482.96057,341.65543,484.28915C340.96823,484.95343,340.4185,485.5261,340.4185,485.549C340.4185,485.5719,339.93747,486.9463,339.36478,488.57266C337.94458,492.6271,337.50937,494.13895,336.9825,496.819C336.73056,498.07886,336.40985,499.7052,336.27243,500.43823C336.08914,501.3545,336.06625,503.39316,336.1808,507.4247C336.29532,510.53998,336.38693,516.3353,336.38693,520.29816L336.40985,527.5137L335.76846,529.6898C335.42487,530.881,334.8751,532.85095,334.5544,534.04205C333.89014,536.6305,333.61526,537.5238,333.0884,538.7379C332.85934,539.2418,332.56155,540.06647,332.4012,540.57043C332.24088,541.07434,331.5995,542.7694,330.98102,544.35C328.91943,549.54974,328.64453,550.6493,328.8507,553.1003C329.01105,555.0473,329.03397,557.2921,328.94232,559.35376C328.8736,560.86554,329.33176,563.66016,329.76697,564.43896C329.95023,564.8055,330.3167,565.33234,330.5687,565.653C330.82068,565.9737,331.14136,566.88995,331.3017,567.7146C331.50784,568.92865,331.80563,569.59296,332.9968,571.33386C334.62314,573.7619,334.8293,574.56366,334.3712,576.5107C334.0734,577.7477,334.0734,577.8622,334.4857,578.27454C335.01254,578.80133,336.9825,583.1078,336.9825,583.72626C336.9825,583.9553,337.44064,585.12354,338.0133,586.3376C339.4564,589.3612,339.96036,590.9418,339.96036,592.362C339.96036,593.0492,340.16653,594.24036,340.3956,595.01917C340.64755,595.82086,340.99115,597.28687,341.1973,598.2948C341.67834,600.5625,342.02194,601.8224,342.38846,602.41797C343.09854,603.63196,343.39633,608.8318,342.9382,612.3594C342.70914,614.05444,342.38846,620.6515,341.99905,631.5092C341.67834,640.5802,341.42636,643.97034,340.96823,645.71124C340.57883,647.15436,340.55594,648.27673,340.55594,656.82086C340.55594,663.34924,340.64755,666.7852,340.8308,667.816C341.5867,671.8705,341.77,672.60345,342.22812,673.8862C342.50296,674.6421,342.8924,675.71875,343.05273,676.2685C343.236,676.81824,343.69412,677.6658,344.0835,678.16974C344.90814,679.1776,345.4121,680.2542,346.55743,683.3924C348.32123,688.2486,348.6648,690.12695,349.0313,696.9072C349.12292,698.35034,349.26038,699.656,349.3749,699.77057C349.6269,700.11414,349.60397,706.2302,349.3291,707.6046C348.9397,709.55164,347.26752,711.1551,341.63254,714.91174C337.3032,717.798,333.4778,720.5925,329.76697,723.47876C327.1556,725.5404,323.65094,727.55615,321.29156,728.4037C320.0317,728.83887,318.79474,729.297,318.5428,729.41156C317.58072,729.82385,316.1605,730.1675,312.2893,730.8318C308.8304,731.42737,305.9213,731.7022,301.27127,731.8855C297.51462,732.0,297.21683,731.9771,293.48306,731.1295C290.7572,730.48816,288.44363,728.9534,287.5045,727.1209C286.8631,725.8611,286.45078,723.6162,286.74857,722.97485C286.9089,722.67706,287.06924,722.0586,287.1609,721.5546C287.5503,719.1266,288.85596,717.43146,292.5668,714.4307C294.12445,713.1709,296.85034,710.7428,298.61414,709.0248C300.37793,707.3297,302.7602,704.9932,303.92844,703.87085C306.01294,701.85504,308.57846,698.694,310.1361,696.2201C311.6021,693.9065,312.65582,692.66956,313.6866,692.11975C314.48834,691.6846,314.87775,691.2493,315.51913,690.0582C315.97726,689.2107,316.41248,688.0653,316.4812,687.5156C316.5728,686.94293,316.8248,686.0038,317.07675,685.4082C317.30582,684.8126,317.512,683.8505,317.512,683.23206C317.512,682.47614,317.69525,681.85767,318.08466,681.2163C318.84058,679.9794,318.79474,679.52124,317.8556,678.4217C316.98514,677.3909,316.80188,676.2914,317.37454,675.4897C317.69525,675.03156,317.9014,673.8862,318.06174,671.80176C318.10754,671.16034,318.31372,670.35864,318.5428,670.015C318.77185,669.6485,319.04672,668.80096,319.13834,668.1138C319.22998,667.4266,319.48193,666.67065,319.6652,666.4645C319.96298,666.1438,320.0088,665.7315,319.89426,664.5862C319.6881,662.1352,319.73392,662.2268,318.2679,661.929C317.53488,661.7687,315.54202,661.5396,313.84695,661.40216C307.04373,660.87537,305.07376,660.6921,301.01932,660.2798C296.30057,659.7987,290.98627,659.91327,284.98477,660.60046C279.7621,661.19604,274.01254,661.31055,271.26376,660.8524C265.92654,659.9591,261.68884,658.4243,259.92505,656.72925C258.6423,655.5152,258.6194,652.9955,259.87924,650.5216C261.07037,648.1393,262.5135,647.246,266.31598,646.51294C267.07187,646.3755,268.10266,646.1694,268.60663,646.0548C269.11057,645.9632,270.80563,645.757,272.3862,645.5967C276.05124,645.276,277.17365,645.02405,277.90665,644.31396C278.41058,643.8329,278.6855,643.76416,280.1973,643.76416L281.8924,643.76416L283.83945,642.0462C284.91605,641.10706,285.90103,640.3511,286.03845,640.3282C286.19882,640.3282,286.8173,639.9159,287.41284,639.4119C288.03134,638.90796,288.87888,638.38116,289.337,638.2437C291.1924,637.62524,293.5289,636.1134,295.26978,634.3725C297.28555,632.35675,297.62915,631.71533,297.69788,629.83704C297.72076,629.12695,297.88113,627.7296,298.04147,626.7676C298.31635,625.2099,298.29343,624.8434,297.97275,623.56067C297.74368,622.6673,297.58334,621.2929,297.60623,619.9185C297.62915,617.53625,297.26263,615.1769,296.7587,614.16895C296.57544,613.8254,296.43802,612.97784,296.43802,612.26776C296.43802,611.4889,296.25476,610.61847,295.9799,610.0229C295.45303,608.87756,295.08652,607.297,295.06363,606.1746C295.06363,605.7394,294.81165,604.86896,294.49097,604.22754C293.66632,602.5783,293.2311,601.2039,293.2311,600.2648C293.2082,599.80664,292.9104,598.8904,292.5439,598.18024C291.97125,597.1265,291.85672,596.6684,291.85672,595.3169C291.85672,594.26324,291.69638,593.30115,291.3986,592.49945C291.1466,591.83514,290.94046,590.75854,290.94046,590.0255C290.94046,588.9718,290.82593,588.5824,290.13873,587.5745C289.49734,586.6354,289.337,586.17725,289.337,585.2839C289.337,584.6196,289.15375,583.795,288.85596,583.2223C288.604,582.69543,288.2375,581.2523,288.07715,579.9925C287.82516,578.09125,287.6419,577.5415,287.04636,576.694L286.33624,575.68604L286.79437,575.1821C287.75644,574.1513,287.68774,574.0139,283.28967,567.7146C280.31183,563.454,278.11282,560.2013,278.11282,560.0409C278.11282,559.9722,277.88376,559.537,277.58597,559.05597C277.28818,558.59784,276.92166,557.8419,276.76132,557.4067C276.60098,556.97144,276.3261,556.28424,276.16577,555.9177C276.0054,555.5283,275.68472,554.40594,275.45566,553.3981C275.04333,551.4281,274.9746,551.0845,274.2416,546.5261C273.96674,544.87683,273.64606,542.9756,273.5086,542.2884C273.39407,541.6012,273.21082,539.8603,273.1421,538.44006C273.00467,536.08075,273.05048,535.76,273.5086,534.75214L274.03546,533.65265L273.8064,522.2223L273.60022,510.79196L272.95886,508.5013C272.61526,507.24146,272.22583,505.22568,272.0884,504.03455C271.7448,501.12543,271.7677,494.96356,272.1113,491.43597C272.27167,489.8554,272.50073,487.54187,272.61526,486.282C272.8214,483.7623,273.1421,481.632,273.53152,480.0056C273.66895,479.43295,273.96674,477.92114,274.21872,476.6613C274.86008,473.2482,275.54727,470.4078,276.07413,468.91888C276.44064,467.86517,276.50937,467.26962,276.41772,466.05557C276.05124,461.9095,276.02832,459.89368,276.2803,458.6797C276.76132,456.57227,277.4027,454.14417,277.76923,453.1134C278.15863,451.99097,278.20444,451.30377,277.90665,450.34167C277.7921,449.95227,277.51724,448.87573,277.3111,447.93652C277.08203,447.02026,276.46353,445.34808,275.9138,444.2486C275.36404,443.12616,274.9059,441.9121,274.9059,441.49982C274.9059,440.56067,274.5394,439.89636,274.01254,439.89636C273.57733,439.89636,268.9044,444.52344,266.4534,447.34094C265.69748,448.21143,264.46054,449.65454,263.70462,450.52496C262.97162,451.3725,262.00955,452.76978,261.5743,453.59442C260.88712,454.9917,260.81842,455.31238,260.68097,457.85504C260.56644,460.69543,260.17703,462.32178,258.96298,465.04767C258.6652,465.71198,258.41324,466.30753,258.41324,466.37625C258.41324,466.44498,258.00092,467.08636,257.49698,467.77356C256.69525,468.89597,256.58072,469.21667,256.58072,470.27036C256.58072,470.93466,256.4662,471.7822,256.32874,472.1258C256.19128,472.4694,255.98514,472.97333,255.8706,473.2253C255.77899,473.47726,255.64154,473.8896,255.57281,474.16446C255.32086,475.05783,254.56494,475.6305,253.64868,475.6305C253.16763,475.6305,252.54916,475.79083,252.27429,475.99698C251.74744,476.3635,251.49545,476.3635,249.52551,475.95117C248.92993,475.83664,248.51761,475.92828,247.83041,476.3177C246.6622,476.98196,246.08954,476.82162,244.34863,475.3327C242.65356,473.8667,242.21832,473.38565,240.24838,470.61395C239.40085,469.3999,238.27841,468.04843,237.7974,467.5903C237.06436,466.9031,236.88113,466.58243,236.88113,465.94104C236.88113,464.58954,237.27054,463.9253,239.35501,461.74915C240.45453,460.60382,242.0351,458.88586,242.85971,457.94666C243.8905,456.82422,245.03583,455.86218,246.36441,455.03754C248.65506,453.59442,249.06738,453.04468,251.01443,448.807C251.72452,447.24933,252.61789,445.4397,252.96149,444.8213C253.32797,444.17987,253.87775,443.10327,254.19843,442.41608C255.38956,439.85052,256.23712,438.15546,256.76395,437.28503C258.11545,435.086,260.3603,430.75665,261.36816,428.3286C261.4827,428.0766,261.73468,427.5039,261.9179,427.06873C262.5364,425.60266,263.6588,422.4187,264.82706,418.70782C265.4684,416.69208,266.3618,414.12653,266.81992,413.02704C268.1485,409.63684,268.78986,407.1859,268.65244,405.8573C268.5608,404.8723,267.4842,401.25305,266.29306,397.8629C265.88074,396.67175,265.331,394.175,265.0332,392.1363C264.91867,391.24292,264.6438,389.5708,264.46054,388.37964C264.23148,387.05103,264.13986,385.72247,264.20856,384.8291C264.3002,384.07324,264.41473,382.14905,264.48346,380.56848C264.55215,378.98798,264.6667,377.10962,264.7354,376.3766C264.84995,375.1626,264.80414,375.02515,264.23148,374.54407C262.39896,373.0323,261.5056,372.11603,260.4977,370.74164C259.12332,368.86328,258.91718,368.49683,258.39032,366.73303C258.16125,365.95416,257.65732,364.41943,257.2908,363.297C256.5578,361.16675,256.5578,361.2583,257.08466,357.662C257.51987,354.54675,258.3445,352.62256,260.77258,348.9347C262.65094,346.07135,264.6438,343.5058,267.32385,340.45923C268.28592,339.38263,269.63742,337.68756,270.32462,336.70258C271.0118,335.74048,271.699,334.80133,271.81354,334.66394C271.95096,334.5265,272.61526,333.58728,273.27954,332.5794C274.74554,330.40332,277.3569,326.807,278.50223,325.3639C279.53302,324.05823,279.4872,323.55426,277.81503,320.09534C276.21158,316.75098,275.75345,315.69733,275.2495,314.13965C275.04333,313.4525,274.60812,312.2384,274.31033,311.4367C274.01254,310.6579,273.7606,309.87903,273.7606,309.6958C273.7606,309.07733,272.86722,308.6192,271.3325,308.4131C267.91943,307.97784,267.4842,307.79456,266.13272,306.1682C265.53714,305.48102,265.079,304.47314,264.46054,302.50317C263.9795,301.03717,263.17776,298.99847,262.69675,297.9906C262.2157,296.98273,261.34525,294.8753,260.77258,293.2948C260.19992,291.71423,259.3295,289.4923,258.82553,288.36987C257.45114,285.2317,257.2679,284.49866,257.245,281.727C257.245,278.77203,256.993,276.5501,256.48907,274.5343C256.1684,273.3203,256.14548,272.70178,256.35165,270.75476C256.4662,269.49487,256.53488,267.66235,256.48907,266.72327C256.26,263.01233,257.245,259.32446,259.7418,254.49121C261.11618,251.83398,261.5056,251.33008,263.52136,249.29138C266.4992,246.2677,267.75906,245.67212,273.82928,244.29773C275.06625,244.0,277.49432,244.0,278.3419,244.29773 Z"/> </g> </g> </g> </svg>